<svg xmlns="http://www.w3.org/2000/svg" xmlns:xlink="http://www.w3.org/1999/xlink" viewBox="0,0,256,256" width="60px" height="60px"><g fill="#35373d" fill-rule="nonzero" stroke="none" stroke-width="1" stroke-linecap="butt" stroke-linejoin="miter" stroke-miterlimit="10" stroke-dasharray="" stroke-dashoffset="0" font-family="none" font-weight="none" font-size="none" text-anchor="none" style="mix-blend-mode: normal"><g transform="scale(8.53333,8.53333)"><path d="M21,5v3h-2.32422c-2.00533,0 -3.87953,1.00408 -4.99219,2.67188l-1.68359,2.52539l-1.68359,-2.52539c-1.11183,-1.66714 -2.98685,-2.67187 -4.99219,-2.67187h-2.32422c-0.36064,-0.0051 -0.69608,0.18438 -0.87789,0.49587c-0.18181,0.3115 -0.18181,0.69676 0,1.00825c0.18181,0.3115 0.51725,0.50097 0.87789,0.49587h2.32422c1.33867,0 2.58595,0.66839 3.32813,1.78125l2.14648,3.21875l-2.14648,3.21875c-0.74217,1.11286 -1.98946,1.78125 -3.32813,1.78125h-2.32422c-0.36064,-0.0051 -0.69608,0.18438 -0.87789,0.49587c-0.18181,0.3115 -0.18181,0.69676 0,1.00825c0.18181,0.3115 0.51725,0.50097 0.87789,0.49587h2.32422c2.00533,0 3.88036,-1.00473 4.99219,-2.67187l1.68359,-2.52539l1.68359,2.52539c1.11266,1.6678 2.98685,2.67188 4.99219,2.67188h2.32422v3l6,-4l-6,-4v3h-2.32422c-1.33867,0 -2.58479,-0.66705 -3.32812,-1.78125l-2.14648,-3.21875l2.14648,-3.21875c0.74334,-1.11421 1.98946,-1.78125 3.32813,-1.78125h2.32422v3l6,-4z"></path></g></g></svg>