<svg xmlns="http://www.w3.org/2000/svg" xmlns:xlink="http://www.w3.org/1999/xlink" viewBox="0,0,256,256" width="64px" height="64px" fill-rule="nonzero" fill="#dfe4ea"><g fill="#dfe4ea" fill-rule="nonzero" stroke="none" stroke-width="1" stroke-linecap="butt" stroke-linejoin="miter" stroke-miterlimit="10" stroke-dasharray="" stroke-dashoffset="0" font-family="none" font-weight="none" font-size="none" text-anchor="none" style="mix-blend-mode: normal"><g transform="scale(4,4)"><path d="M18.50586,9.41406c-2.92848,0 -5.32422,2.39574 -5.32422,5.32422v35.41602c0,2.92848 2.39574,5.32422 5.32422,5.32422h28.13867c2.92848,0 5.32422,-2.39574 5.32422,-5.32422v-21.00586c0.0051,-0.36064 -0.18438,-0.69608 -0.49587,-0.87789c-0.3115,-0.18181 -0.69676,-0.18181 -1.00825,0c-0.3115,0.18181 -0.50097,0.51725 -0.49587,0.87789v21.00586c0,1.84752 -1.4767,3.32422 -3.32422,3.32422h-28.13867c-1.84752,0 -3.32422,-1.4767 -3.32422,-3.32422v-35.41602c0,-1.84752 1.4767,-3.32422 3.32422,-3.32422h18.20703l11.73633,12.61719h-9.38477c-0.7814,0 -1.39453,-0.61117 -1.39453,-1.39258v-5.83984c0.0051,-0.36064 -0.18438,-0.69608 -0.49587,-0.87789c-0.3115,-0.18181 -0.69676,-0.18181 -1.00825,0c-0.3115,0.18181 -0.50097,0.51725 -0.49587,0.87789v5.83984c0,1.86259 1.53194,3.39258 3.39453,3.39258h11.67969c0.39731,-0.00052 0.75663,-0.23617 0.91543,-0.60036c0.1588,-0.36419 0.08697,-0.78784 -0.18301,-1.07933l-13.5957,-14.61719c-0.189,-0.20394 -0.45437,-0.32 -0.73242,-0.32031z"></path></g></g></svg>