<svg xmlns="http://www.w3.org/2000/svg" xmlns:xlink="http://www.w3.org/1999/xlink" viewBox="0,0,256,256" width="50px" height="50px" fill-rule="nonzero"><g fill="#dcdcdd" fill-rule="nonzero" stroke="none" stroke-width="1" stroke-linecap="butt" stroke-linejoin="miter" stroke-miterlimit="10" stroke-dasharray="" stroke-dashoffset="0" font-family="none" font-weight="none" font-size="none" text-anchor="none" style="mix-blend-mode: normal"><g transform="scale(5.12,5.12)"><path d="M1.78125,-0.03125c-0.48047,0.10938 -0.82031,0.53906 -0.8125,1.03125v48c0.00391,0.56641 0.46484,1.02734 1.03125,1.03125h30c0.56641,-0.00391 1.02734,-0.46484 1.03125,-1.03125v-10h-2.0625v8.96875h-27.9375v-45.9375h27.9375v8.96875h2.0625v-10c-0.00391,-0.56641 -0.46484,-1.02734 -1.03125,-1.03125h-30c-0.07422,-0.00781 -0.14453,-0.00781 -0.21875,0zM24.78125,15.09375c-0.22656,0.03125 -0.4375,0.14453 -0.59375,0.3125l-8.90625,8.875l-0.6875,0.71875l0.6875,0.71875l8.90625,8.875c0.24219,0.29688 0.62891,0.43359 1.00391,0.34766c0.37109,-0.08594 0.66406,-0.37891 0.75,-0.75c0.08594,-0.375 -0.05078,-0.76172 -0.34766,-1.00391l-7.15625,-7.1875h29.5625c0.35938,0.00391 0.69531,-0.18359 0.87891,-0.49609c0.17969,-0.3125 0.17969,-0.69531 0,-1.00781c-0.18359,-0.3125 -0.51953,-0.5 -0.87891,-0.49609h-29.5625l7.15625,-7.1875c0.3125,-0.29687 0.40234,-0.76172 0.21875,-1.15234c-0.1875,-0.39453 -0.60156,-0.62109 -1.03125,-0.56641z"></path></g></g></svg>